<svg width="431" height="487" viewBox="0 0 431 487" fill="none" xmlns="http://www.w3.org/2000/svg">
<g clip-path="url(#clip0_126:616)">
<path d="M292.138 383.462C305.82 370.586 312.874 351.297 305.524 334.98C294.823 351.399 277.208 364.33 256.784 370.758C248.829 373.261 239.682 375.326 235.355 381.641C232.663 385.571 232.467 390.491 233.68 394.941C234.893 399.39 237.39 403.483 239.863 407.519L239.877 408.661C259.238 403.737 278.456 396.338 292.138 383.462Z" fill="#F2F2F2"/>
<path d="M305.112 335.067C302.805 349.276 295.257 362.937 283.716 373.236C281.21 375.566 278.367 377.504 275.283 378.984C272.109 380.389 268.649 381.029 265.182 380.85C261.916 380.746 258.589 380.312 255.351 380.899C253.763 381.178 252.248 381.774 250.896 382.652C249.544 383.53 248.382 384.672 247.482 386.009C245.335 389.165 244.622 392.803 244.067 396.382C243.452 400.355 242.884 404.491 240.267 407.909C239.95 408.323 240.709 408.726 241.025 408.313C245.578 402.366 244.055 394.766 247.127 388.353C248.561 385.36 251.041 382.725 254.749 381.821C257.992 381.031 261.423 381.477 264.729 381.607C268.116 381.822 271.511 381.309 274.684 380.102C277.843 378.764 280.766 376.926 283.339 374.657C288.973 369.843 293.788 364.147 297.594 357.79C301.818 350.825 304.671 343.118 306.001 335.083C306.081 334.592 305.191 334.579 305.112 335.067V335.067Z" fill="white"/>
<path d="M287.67 370.061C290.02 371.517 292.765 372.205 295.524 372.029C298.283 371.852 300.918 370.821 303.063 369.078C303.47 368.728 302.863 368.163 302.456 368.513C300.461 370.14 298.007 371.1 295.438 371.26C292.87 371.419 290.315 370.769 288.135 369.402C287.675 369.107 287.212 369.767 287.67 370.061Z" fill="white"/>
<path d="M266.83 381.092C266.373 378.61 266.446 376.059 267.047 373.608C267.647 371.156 268.759 368.86 270.311 366.869C270.627 366.454 269.868 366.051 269.553 366.465C267.943 368.54 266.79 370.932 266.172 373.484C265.553 376.037 265.483 378.691 265.965 381.272C266.06 381.763 266.924 381.581 266.83 381.092Z" fill="white"/>
<path d="M300.691 350.618C299.721 350.272 298.855 349.684 298.176 348.91C297.497 348.136 297.027 347.201 296.811 346.195C296.723 345.703 295.859 345.886 295.946 346.375C296.19 347.486 296.71 348.517 297.458 349.373C298.206 350.23 299.158 350.884 300.226 351.276C300.327 351.327 300.443 351.342 300.554 351.319C300.665 351.296 300.765 351.236 300.837 351.149C300.867 351.106 300.887 351.056 300.896 351.005C300.904 350.953 300.901 350.9 300.888 350.849C300.874 350.799 300.849 350.752 300.815 350.712C300.781 350.672 300.738 350.64 300.691 350.618Z" fill="white"/>
<path d="M240.644 316.428C240.689 316.736 240.733 317.045 240.773 317.358C241.349 321.501 241.537 325.688 241.333 329.866C241.323 330.189 241.308 330.517 241.287 330.839C240.643 341.004 237.872 350.92 233.153 359.946C231.233 363.632 229.016 367.155 226.524 370.48C223.052 375.12 218.862 379.911 217.4 385.123C217.241 385.664 217.121 386.214 217.039 386.771L238.273 408.587C238.35 408.616 238.421 408.649 238.498 408.677L239.3 409.582C239.444 409.417 239.589 409.242 239.732 409.077C239.816 408.981 239.895 408.881 239.979 408.785C240.033 408.72 240.087 408.654 240.141 408.598C240.159 408.576 240.177 408.554 240.189 408.537C240.242 408.481 240.285 408.424 240.333 408.372C241.145 407.399 241.952 406.421 242.751 405.435C242.757 405.431 242.757 405.431 242.758 405.422C248.83 397.9 254.232 389.872 258.06 381.387C258.175 381.132 258.296 380.872 258.401 380.607C260.092 376.803 261.431 372.853 262.4 368.804C262.917 366.606 263.306 364.38 263.565 362.137C264.22 356.347 263.823 350.487 262.391 344.839C259.532 333.522 252.538 323.125 241.493 316.897C241.211 316.737 240.932 316.583 240.644 316.428Z" fill="#F2F2F2"/>
<path d="M240.373 316.711C248.382 329.263 251.825 344.118 249.749 358.375C249.374 361.514 248.443 364.561 247.001 367.374C245.397 370.201 243.057 372.541 240.23 374.146C237.55 375.771 234.592 377.163 232.414 379.325C231.343 380.378 230.536 381.669 230.06 383.094C229.583 384.518 229.451 386.035 229.673 387.52C230.147 391.163 232.1 394.44 234.138 397.588C236.401 401.083 238.815 404.681 239.095 408.779C239.129 409.275 240.014 409.201 239.98 408.705C239.493 401.576 233.008 396.304 231.015 389.577C230.085 386.438 230.238 383.037 232.573 380.376C234.614 378.05 237.663 376.612 240.392 374.987C243.182 373.447 245.553 371.247 247.298 368.58C248.897 365.848 249.962 362.836 250.434 359.706C251.593 352.771 251.488 345.683 250.122 338.786C248.569 330.772 245.506 323.128 241.094 316.259C240.818 315.825 240.098 316.28 240.373 316.711Z" fill="white"/>
<path d="M250.705 353.772C256.521 353.719 261.483 349.93 262.315 344.938C262.396 344.446 261.521 344.313 261.439 344.805C260.66 349.481 256.056 352.954 250.62 353.003C250.048 353.009 250.137 353.777 250.705 353.772Z" fill="white"/>
<path d="M241.713 373.478C239.702 371.875 238.037 369.881 236.82 367.616C235.603 365.351 234.859 362.862 234.633 360.301C234.597 359.804 233.712 359.879 233.748 360.375C233.989 363.04 234.769 365.629 236.041 367.984C237.313 370.339 239.05 372.41 241.148 374.074C241.564 374.416 242.127 373.818 241.713 373.478V373.478Z" fill="white"/>
<path d="M247.623 331.44C246.548 331.657 245.439 331.636 244.373 331.376C243.308 331.116 242.313 330.625 241.459 329.937C241.048 329.59 240.485 330.188 240.894 330.533C241.84 331.289 242.94 331.831 244.117 332.12C245.293 332.41 246.519 332.44 247.708 332.208C247.945 332.162 248.131 332.013 248.108 331.787C248.087 331.678 248.025 331.581 247.935 331.517C247.845 331.452 247.733 331.425 247.623 331.44V331.44Z" fill="white"/>
<path d="M191.441 408.012C165.013 426.076 138.737 430.66 117.453 420.921C90.1402 408.423 73.595 374.012 72.0601 326.512L73.6781 326.664C75.1913 373.502 91.3452 407.36 117.997 419.556C138.711 429.034 164.419 424.479 190.388 406.729L191.441 408.012Z" fill="#F2F2F2"/>
<path d="M354.761 102.146C352.159 130.813 344.744 161.04 333.116 190.205C318.737 226.272 299.091 258.039 276.301 282.073L275.037 280.97C297.716 257.052 317.273 225.425 331.592 189.508C344.533 157.05 352.231 123.272 353.862 91.8419L355.478 92.1124C355.307 95.4318 355.068 98.7764 354.761 102.146Z" fill="#F2F2F2"/>
<path d="M284.554 61.4051L282.983 61.5771C275.978 34.0587 262.4 14.9942 243.717 6.4443C219.965 -4.42409 190.595 2.87424 161.017 26.9952C131.289 51.2392 104.972 89.5343 86.9136 134.828L85.3892 134.131C103.526 88.6391 129.979 50.1589 159.874 25.7801C189.919 1.27805 219.888 -6.07379 244.261 5.07917C263.48 13.874 277.413 33.3513 284.554 61.4051Z" fill="#F2F2F2"/>
<path d="M371.73 300.983C339.721 351.892 300.887 388.267 262.381 403.406L261.603 401.979C299.842 386.944 338.448 350.756 370.311 300.079L371.73 300.983Z" fill="#F2F2F2"/>
<path d="M421.116 186.925C420.588 192.735 419.912 198.616 419.087 204.568L417.482 204.179C423.643 159.761 421.458 119.035 411.16 86.3954L412.707 86.1366C421.689 114.609 424.544 149.168 421.116 186.925Z" fill="#F2F2F2"/>
<path d="M86.7935 142.795C82.685 151.448 78.7771 160.412 75.1783 169.438C54.4691 221.381 43.9746 274.429 44.8322 322.849L43.2137 322.676C42.3552 274.076 52.8799 220.846 73.6539 168.741C77.2631 159.689 81.182 150.7 85.3024 142.023L86.7935 142.795Z" fill="#F2F2F2"/>
<path d="M190.665 443.703C164.237 461.767 137.96 466.351 116.676 456.612C89.3633 444.114 72.8181 409.703 71.2832 362.203L72.9013 362.354C74.4144 409.193 90.5684 443.051 117.221 455.247C137.934 464.725 163.643 460.17 189.611 442.42L190.665 443.703Z" fill="#F2F2F2"/>
<path d="M353.985 137.837C351.382 166.503 343.968 196.731 332.34 225.896C317.96 261.962 298.314 293.73 275.524 317.763L274.26 316.661C296.939 292.743 316.496 261.116 330.815 225.198C343.757 192.74 351.454 158.963 353.085 127.533L354.701 127.803C354.53 131.123 354.291 134.467 353.985 137.837Z" fill="#F2F2F2"/>
<path d="M351.134 99.0764L349.563 99.2485C342.558 71.73 328.98 52.6655 310.297 44.1157C286.545 33.2473 257.175 40.5456 227.597 64.6665C197.869 88.9106 171.552 127.206 153.494 172.499L151.969 171.802C170.106 126.31 196.559 87.8303 226.454 63.4515C256.499 38.9494 286.468 31.5976 310.841 42.7506C330.06 51.5454 343.993 71.0227 351.134 99.0764Z" fill="#F2F2F2"/>
<path d="M369.633 349.217C337.624 400.126 298.79 436.501 260.284 451.64L259.505 450.213C297.744 435.178 336.351 398.99 368.214 348.313L369.633 349.217Z" fill="#F2F2F2"/>
<path d="M420.339 222.616C419.811 228.426 419.135 234.307 418.31 240.259L416.705 239.87C422.866 195.452 420.681 154.726 410.383 122.086L411.93 121.828C420.912 150.3 423.767 184.859 420.339 222.616Z" fill="#F2F2F2"/>
<path d="M86.0166 178.486C81.9081 187.139 78.0003 196.103 74.4015 205.129C53.6923 257.072 43.1978 310.12 44.0554 358.54L42.4368 358.367C41.5783 309.767 52.1031 256.537 72.8771 204.432C76.4862 195.38 80.4052 186.391 84.5256 177.714L86.0166 178.486Z" fill="#F2F2F2"/>
<path d="M395.654 153.44C397.443 150.752 396.384 146.903 393.288 144.844C390.193 142.785 386.233 143.296 384.444 145.984C382.655 148.673 383.714 152.521 386.809 154.58C389.905 156.639 393.865 156.129 395.654 153.44Z" fill="#FD6584"/>
<path d="M190.002 187.713C193.749 181.973 199.866 177.463 206.678 177.082C213.491 176.701 221.678 182.5 225.04 188.468C231.19 199.384 228.522 209.88 220.051 217.473C218.9 217.082 214.884 215.904 213.714 215.527L212.973 214.189L212.058 215.002C201.589 216.047 191.477 214.884 183.598 207.086C184.577 200.3 186.256 193.452 190.002 187.713Z" fill="#2F2E41"/>
<path d="M218.071 264.332L216.833 275.806L217.562 290.853L184.224 286.893L181.091 264.332L185.082 264.371L218.071 264.332Z" fill="#FFB6B6"/>
<path d="M204.383 214.745C212.028 214.745 218.226 208.549 218.226 200.906C218.226 193.263 212.028 187.067 204.383 187.067C196.737 187.067 190.539 193.263 190.539 200.906C190.539 208.549 196.737 214.745 204.383 214.745Z" fill="#FFB7B7"/>
<path d="M189.043 226.62L196.965 221.868L212.809 220.284L226.812 227.413L226.672 249.19L217.788 271.777L180.556 267.026L179.141 259.059C179.141 259.059 168.843 245.231 179.933 237.311L189.043 226.62Z" fill="#5BBC76"/>
<path d="M199.207 179.888C202.206 179.047 205.377 179.028 208.387 179.831C211.396 180.635 214.135 182.232 216.316 184.456C218.497 186.679 220.041 189.448 220.785 192.472C221.529 195.496 221.447 198.665 220.547 201.646C212.116 202.319 203.782 201.532 197.212 195.569L196.628 190.453L194.231 194.734C191.813 194.054 189.392 193.37 186.966 192.681C187.708 189.665 189.229 186.895 191.377 184.65C193.525 182.405 196.225 180.763 199.207 179.888Z" fill="#2F2E41"/>
<path d="M141.497 161.955C141.122 162.755 140.926 163.628 140.925 164.511C140.923 165.395 141.116 166.268 141.488 167.07C141.861 167.871 142.405 168.581 143.082 169.15C143.758 169.719 144.552 170.132 145.406 170.361L171.198 219.012L181.609 210.979L152.982 165.683C153.272 164.223 153.016 162.708 152.263 161.425C151.509 160.141 150.312 159.178 148.896 158.719C147.48 158.259 145.945 158.335 144.582 158.931C143.218 159.528 142.12 160.603 141.497 161.955H141.497Z" fill="#FFB6B6"/>
<path d="M183.806 235.452C183.806 235.452 181.416 237.571 178.017 231.719C175.296 227.035 161.725 206.059 159.804 198.787C158.75 198.817 157.716 198.495 156.865 197.873C156.014 197.25 155.394 196.363 155.104 195.349L169.68 189.693C172.849 191.277 171.97 193.472 171.166 194.608L176.595 202.749L194.653 223.008L185.561 233.95L183.806 235.452Z" fill="#5BBC76"/>
<path d="M430.214 487H0.786272C0.577739 487 0.377739 486.917 0.230283 486.77C0.0828279 486.622 0 486.422 0 486.214C0 486.006 0.0828279 485.806 0.230283 485.658C0.377739 485.511 0.577739 485.428 0.786272 485.428H430.214C430.422 485.428 430.622 485.511 430.77 485.658C430.917 485.806 431 486.006 431 486.214C431 486.422 430.917 486.622 430.77 486.77C430.622 486.917 430.422 487 430.214 487Z" fill="#CCCCCC"/>
<path d="M327.405 48.3111C319.655 40.6739 309.305 36.4588 298.925 33.7621C287.176 30.7095 275.027 28.9114 263.024 27.1862C250.515 25.3883 237.956 24.0015 225.348 23.0259C212.757 22.0554 200.143 21.4999 187.506 21.3592C176.246 21.2331 164.91 21.2292 153.704 22.4782C143.15 23.6545 132.621 26.015 123.106 30.8611C114.637 35.082 107.521 41.5932 102.568 49.6549C98.0138 57.1587 95.3063 66.154 96.2478 74.9746C96.6893 79.318 98.0421 83.5195 100.218 87.3049C102.768 91.4881 106.018 95.2022 109.826 98.2854C117.689 104.922 127.088 109.774 133.852 117.661C135.638 119.728 137.198 121.979 138.505 124.377C139.488 126.195 140.592 127.76 142.419 128.821C144.049 129.751 145.919 130.178 147.792 130.047C149.665 129.917 151.457 129.235 152.943 128.087C155.05 126.434 156.563 123.886 158.193 121.789L163.878 114.475C164.289 113.819 164.765 113.206 165.299 112.646C165.682 112.33 165.05 112.609 165.175 112.53C165.244 112.486 165.366 112.51 165.441 112.48C165.82 112.371 166.208 112.299 166.6 112.264C170.751 111.501 174.911 110.788 179.08 110.123C194.473 107.64 209.966 105.592 225.523 104.488C233.542 103.848 241.59 103.656 249.63 103.913C260.027 104.339 270.28 106.402 280.638 107.293C291.79 108.251 303.505 108.119 314.013 103.82C322.425 100.379 330.234 94.5901 334.788 86.5944C336.949 82.8128 338.23 78.5929 338.534 74.2484C339.09 64.3942 334.297 55.1017 327.405 48.3111Z" fill="#E6E6E6"/>
<path d="M181.308 29.4357C179.324 29.4357 177.342 29.4462 175.362 29.4672C156.341 29.669 136.683 31.2064 121.766 41.0078C108.525 49.7077 99.245 69.0867 107.098 82.9845C110.705 89.3661 117.238 94.0114 124.156 98.9289C126.867 100.857 129.671 102.85 132.358 104.997C138.229 109.686 143.756 115.98 146.936 123.057L160.904 105.087L163.543 104.582C166.082 104.096 226.086 92.7217 258.044 96.4145C260.983 96.7542 263.953 97.1451 266.826 97.5229C279.809 99.2306 292.071 100.842 303.843 98.4623C316.133 95.9761 329.627 86.4874 330.431 73.7987C330.98 65.1118 325.327 55.5822 316.029 49.5207C306.627 43.392 294.901 40.8616 283.696 38.795C249.922 32.5736 215.651 29.4409 181.308 29.4357Z" fill="white"/>
<path d="M289.704 57.0851H154.817C154.039 57.0851 153.292 56.776 152.742 56.2257C152.192 55.6755 151.882 54.9293 151.882 54.1511C151.882 53.373 152.192 52.6267 152.742 52.0765C153.292 51.5263 154.039 51.2172 154.817 51.2172H289.704C290.482 51.2172 291.229 51.5263 291.779 52.0765C292.329 52.6267 292.638 53.373 292.638 54.1511C292.638 54.9293 292.329 55.6755 291.779 56.2257C291.229 56.776 290.482 57.0851 289.704 57.0851Z" fill="#5BBC76"/>
<path d="M289.704 75.094H154.817C154.039 75.094 153.292 74.7849 152.742 74.2347C152.192 73.6844 151.882 72.9382 151.882 72.16C151.882 71.3819 152.192 70.6356 152.742 70.0854C153.292 69.5352 154.039 69.2261 154.817 69.2261H289.704C290.482 69.2261 291.229 69.5352 291.779 70.0854C292.329 70.6356 292.638 71.3819 292.638 72.16C292.638 72.9382 292.329 73.6844 291.779 74.2347C291.229 74.7849 290.482 75.094 289.704 75.094Z" fill="#5BBC76"/>
<path d="M170.536 93.1025H154.817C154.039 93.1025 153.292 92.7934 152.742 92.2432C152.192 91.693 151.882 90.9467 151.882 90.1686C151.882 89.3904 152.192 88.6442 152.742 88.0939C153.292 87.5437 154.039 87.2346 154.817 87.2346H170.536C171.315 87.2346 172.061 87.5437 172.611 88.0939C173.162 88.6442 173.471 89.3904 173.471 90.1686C173.471 90.9467 173.162 91.693 172.611 92.2432C172.061 92.7934 171.315 93.1025 170.536 93.1025Z" fill="#5BBC76"/>
<path d="M146.165 163.477C153.054 163.477 158.639 157.894 158.639 151.007C158.639 144.12 153.054 138.537 146.165 138.537C139.276 138.537 133.691 144.12 133.691 151.007C133.691 157.894 139.276 163.477 146.165 163.477Z" fill="#E6E6E6"/>
<path d="M109.871 304.354C111.661 301.666 110.602 297.817 107.506 295.758C104.411 293.7 100.451 294.21 98.6615 296.898C96.8723 299.587 97.9313 303.435 101.027 305.494C104.122 307.553 108.082 307.043 109.871 304.354Z" fill="#F2F2F2"/>
<path d="M377.515 303.506C379.304 300.817 378.245 296.969 375.149 294.91C372.054 292.851 368.094 293.361 366.305 296.05C364.515 298.738 365.574 302.587 368.67 304.646C371.765 306.705 375.725 306.194 377.515 303.506Z" fill="#E6E6E6"/>
<path d="M276.479 206.462C278.269 203.773 277.21 199.925 274.114 197.866C271.018 195.807 267.059 196.317 265.269 199.006C263.48 201.694 264.539 205.543 267.635 207.602C270.73 209.661 274.69 209.15 276.479 206.462Z" fill="#E6E6E6"/>
<path d="M235.363 472.662H228.074L224.606 444.556H235.363V472.662Z" fill="#FFB6B6"/>
<path d="M239.21 485.287H233.983L233.05 480.353L230.661 485.287H216.797C216.133 485.287 215.486 485.074 214.95 484.681C214.415 484.287 214.02 483.732 213.822 483.098C213.624 482.464 213.634 481.783 213.851 481.155C214.068 480.527 214.48 479.985 215.026 479.607L226.097 471.964V466.976L237.742 467.671L239.21 485.287Z" fill="#2F2E41"/>
<path d="M194.421 472.662H187.132L183.664 444.556H194.421V472.662Z" fill="#FFB6B6"/>
<path d="M198.268 485.287H193.041L192.108 480.353L189.718 485.287H175.855C175.19 485.287 174.543 485.074 174.008 484.681C173.473 484.287 173.077 483.732 172.879 483.098C172.682 482.464 172.692 481.783 172.909 481.155C173.125 480.527 173.537 479.985 174.084 479.607L185.155 471.964V466.976L196.8 467.671L198.268 485.287Z" fill="#2F2E41"/>
<path d="M238.508 448.425H238.429L237.027 402.726C237.934 400.977 238.395 399.03 238.367 397.06C238.34 395.09 237.826 393.157 236.87 391.434L236.67 391.071L237.19 388.659C237.858 385.561 237.552 382.332 236.312 379.415L235.004 336.787C239.676 306.518 217.411 286.777 217.411 286.777H184.058L176.897 311.372C172.163 357.478 173.022 402.407 180.534 445.936L180.329 446.039C179.592 446.294 179.276 447.315 179.623 448.32C179.97 449.326 180.849 449.934 181.586 449.68L199.201 449.067C199.938 448.813 200.255 447.792 199.907 446.786C199.56 445.781 198.681 445.172 197.944 445.427L196.746 446.032L199.3 401.935L199.017 393.88L199.601 384.742L202.301 343.64L212.521 394.184L222.96 448.933C222.672 449.194 222.47 449.536 222.38 449.914C222.29 450.291 222.318 450.687 222.458 451.05C222.598 451.412 222.845 451.723 223.166 451.942C223.486 452.161 223.866 452.277 224.255 452.276H238.508C239.019 452.276 239.509 452.073 239.87 451.712C240.232 451.351 240.435 450.861 240.435 450.35C240.435 449.84 240.232 449.35 239.87 448.989C239.509 448.628 239.019 448.425 238.508 448.425H238.508Z" fill="#2F2E41"/>
<path d="M127.302 320.997C128.054 320.533 128.696 319.911 129.182 319.172C129.668 318.434 129.986 317.598 130.114 316.724C130.242 315.849 130.177 314.957 129.922 314.111C129.668 313.264 129.231 312.484 128.643 311.824L133.751 257L120.639 258.012L119.741 311.585C118.698 312.647 118.081 314.054 118.008 315.54C117.934 317.026 118.407 318.488 119.339 319.648C120.271 320.808 121.597 321.586 123.064 321.835C124.532 322.084 126.039 321.785 127.302 320.997V320.997Z" fill="#FFB6B6"/>
<path d="M226.327 227.631C226.327 227.631 229.488 227.169 229.122 233.926C228.828 239.335 230.222 272.675 227.841 279.809C228.739 280.362 229.427 281.198 229.798 282.185C230.168 283.172 230.199 284.254 229.887 285.261L214.594 282.002C212.812 278.941 213.182 275.798 214.476 275.288L214.4 265.505L211.021 233.255L224.036 227.925L226.327 227.631Z" fill="#5BBC76"/>
</g>
<defs>
<clipPath id="clip0_126:616">
<rect width="431" height="487" fill="white"/>
</clipPath>
</defs>
</svg>
